# xmcd CD database file
#
# Track frame offsets:
#	150
#	15433
#	30666
#	45885
#	59580
#	76385
#	91102
#	105805
#	121523
#	135980
#	161742
#	179602
#
# Disc length: 2612 seconds
#
# Revision: 0
# Processed by: cddbd v1.5.2PL0 Copyright (c) Steve Scherf et al.
# Submitted via: CDex 1.51
#
DISCID=7f0a320c
DTITLE=Big Smo - Special Reserve
DYEAR=2018
DGENRE=Country
TTITLE0=Country Outlaw
TTITLE1=Monster In Me (feat C Todd Nielsen)
TTITLE2=Bright Lights Big City
TTITLE3=I'm Still Here (feat Corey Crowder)
TTITLE4=Swingin' (feat C Todd Nielsen)
TTITLE5=Livin' A Country Song (feat Corey Crowder)
TTITLE6=Shake (feat Tom G)
TTITLE7=Memories (feat Ben Burgess)
TTITLE8=Free To Be Lonely (feat Jimmy Burney)
TTITLE9=The Message (feat No Wyld)
TTITLE10=Cause We Can
TTITLE11=One (feat Jay Allen)
EXTD=YEAR: 2018
EXTT0=
EXTT1=
EXTT2=
EXTT3=
EXTT4=
EXTT5=
EXTT6=
EXTT7=
EXTT8=
EXTT9=
EXTT10=
EXTT11=
PLAYORDER=
